{"title":"Shooting Michael Moore Film Documentary","uid":10120963,"size":4745190841,"categoryP":"video","categoryS":"movies_dvdr","magnet":"?xt=urn:btih:eefc1a50af460f667a5ad7d292a23f2baed1e756&amp;dn=Shooting+Michael+Moore+Film+Documentary&amp;tr=udp%3A%2F%2Ftracker.openbittorrent.com%3A80&amp;tr=udp%3A%2F%2Fopen.demonii.com%3A1337&amp;tr=udp%3A%2F%2Ftracker.coppersurfer.tk%3A6969&amp;tr=udp%3A%2F%2Fexodus.desync.com%3A6969","seeders":1,"leechers":1,"uploader":"bos74360","files":-1,"time":1399673590,"description":"Shooting Michael Moore reveals another side of Moore.\n\nWe learn that while writing books and shooting films that expose America's inequities and presenting himself as a moral compass, he abused the non-profit status, engaged in questionable tax practices, violated environmental laws, and invested in Halliburton, oil stocks, leading drug companies, and HMO-chains.\n\nAdditionally, contrary to his public persona, he used and deceived both the &quot;little people&quot; as well as U.S servicemen, and Flint's populace is still waiting for him to bring promised jobs.\n &lt;a href=&quot;\nhttp://www.imdb.com/title/tt1323581/&quot; rel=&quot;nofollow&quot; target=&quot;_NEW&quot;&gt;\nhttp://www.imdb.com/title/tt1323581/&lt;/a&gt;\n\nThis torrent contains two formats of the video. One is an ISO, and the other is an MP4 which I ripped using DVDFab v9.1.4.2. Choose the one you want, or both, through your torrent client.\n\nMP4 details:\n\nFormat                                   : MPEG-4\nFormat profile                           : Base Media / Version 2\nCodec ID                                 : mp42\nFile size                                : 1.17 GiB\nDuration                                 : 1h 22mn\nOverall bit rate mode                    : Variable\nOverall bit rate                         : 2 027 Kbps\nMovie name                               : SMM.Title1\nAlbum                                    : SMM\nEncoded date                             : UTC 2014-05-09 10:46:40\nTagged date                              : UTC 2014-05-09 10:55:59\nWriting application                      : DVDFab 9.1.4.2\ncovr                                     : Unknown kind of value!\n\nVideo\nID                                       : 1\nFormat                                   : AVC\nFormat/Info                              : Advanced Video Codec\nFormat profile                           : &lt;a class=&quot;__cf_email__&quot; href=&quot;/cdn-cgi/l/email-protection&quot; data-cfemail=&quot;3578545c5b7579061b05&quot;&gt;[email&amp;#160;protected]&lt;/a&gt;&lt;script cf-hash='f9e31' type=&quot;text/javascript&quot;&gt;\n/* &lt;![CDATA[ */!function(){try{var t=&quot;currentScript&quot;in document?document.currentScript:function(){for(var t=document.getElementsByTagName(&quot;script&quot;),e=t.length;e--;)if(t[e].getAttribute(&quot;cf-hash&quot;))return t[e]}();if(t&amp;&amp;t.previousSibling){var e,r,n,i,c=t.previousSibling,a=c.getAttribute(&quot;data-cfemail&quot;);if(a){for(e=&quot;&quot;,r=parseInt(a.substr(0,2),16),n=2;a.length-n;n+=2)i=parseInt(a.substr(n,2),16)^r,e+=String.fromCharCode(i);e=document.createTextNode(e),c.parentNode.replaceChild(e,c)}}}catch(u){}}();/* ]]&gt; */&lt;/script&gt;\nFormat settings, CABAC                   : Yes\nFormat settings, ReFrames                : 1 frame\nCodec ID                                 : avc1\nCodec ID/Info                            : Advanced Video Coding\nDuration                                 : 1h 22mn\nBit rate                                 : 1 876 Kbps\nWidth                                    : 640 pixels\nHeight                                   : 396 pixels\nDisplay aspect ratio                     : 16:10\nFrame rate mode                          : Constant\nFrame rate                               : 29.970 fps\nColor space                              : YUV\nChroma subsampling                       : 4:2:0\nBit depth                                : 8 bits\nScan type                                : Progressive\nBits/(Pixel*Frame)                       : 0.247\nStream size                              : 1.08 GiB (93%)\nWriting library                          : x264 core\nEncoded date                             : UTC 2014-05-09 10:46:40\nTagged date                              : UTC 2014-05-09 10:55:58\nColor primaries                          : BT.601 NTSC\nTransfer characteristics                 : BT.709\nMatrix coefficients                      : BT.601\n\nAudio\nID                                       : 2\nFormat                                   : AAC\nFormat/Info                              : Advanced Audio Codec\nFormat profile                           : LC\nCodec ID                                 : 40\nDuration                                 : 1h 22mn\nBit rate mode                            : Variable\nBit rate                                 : 144 Kbps\nMaximum bit rate                         : 258 Kbps\nChannel(s)                               : 2 channels\nChannel positions                        : Front: L R\nSampling rate                            : 48.0 KHz\nCompression mode                         : Lossy\nStream size                              : 86.2 MiB (7%)\nEncoded date                             : UTC 2014-05-09 10:46:40\nTagged date                              : UTC 2014-05-09 10:55:55\n\nMenu\nID                                       : 3\nCodec ID                                 : text\nDuration                                 : 1h 22mn\nEncoded date                             : UTC 2014-05-09 10:46:40\nTagged date                              : UTC 2014-05-09 10:55:59\nBit rate mode                            : CBR\nDuration_FirstFrame                      : 4938434","torrent":{"xt":"urn:btih:eefc1a50af460f667a5ad7d292a23f2baed1e756","amp;dn":"Shooting+Michael+Moore+Film+Documentary","amp;tr":["udp%3A%2F%2Ftracker.openbittorrent.com%3A80","udp%3A%2F%2Fopen.demonii.com%3A1337","udp%3A%2F%2Ftracker.coppersurfer.tk%3A6969","udp%3A%2F%2Fexodus.desync.com%3A6969"],"infoHash":"eefc1a50af460f667a5ad7d292a23f2baed1e756","infoHashBuffer":{"type":"Buffer","data":[238,252,26,80,175,70,15,102,122,90,215,210,146,162,63,43,174,209,231,86]},"announce":[],"urlList":[]}}